# 3ds Max Wavefront OBJ Exporter v0.97b - (c)2007 guruware
# File Created: 18.02.2021 03:22:44

#
# object Box001
#

v  4.8677 -0.0000 -15.3350
v  4.8677 0.0000 15.3350
v  -4.8677 0.0000 15.3350
v  -4.8677 -0.0000 -15.3350
v  4.8677 8.8892 -15.3350
v  -4.8677 8.8892 -15.3350
v  -4.8677 8.8892 15.3350
v  4.8677 8.8892 15.3350
v  3.6363 1.1243 -66.0282
v  -3.6363 1.1243 -66.0282
v  -3.6363 7.7649 -66.0282
v  3.6363 7.7649 -66.0282
v  -2.7136 1.9668 25.6492
v  2.7136 1.9668 25.6492
v  2.7136 6.9224 25.6492
v  -2.7136 6.9224 25.6492
v  -4.8677 -0.0000 -24.7714
v  4.8677 -0.0000 -24.7714
v  4.8677 8.8892 -24.7714
v  -4.8677 8.8892 -24.7714
v  -38.8825 1.6014 -16.3705
v  -38.8825 7.2878 -16.3705
v  -38.8825 7.2878 -23.7359
v  -38.8825 1.6014 -23.7359
v  38.0047 6.5369 -15.3350
v  38.0047 2.3523 -15.3350
v  38.0047 2.3523 -24.7714
v  38.0047 6.5369 -24.7714
v  -4.8677 -0.0000 -48.9110
v  4.8677 -0.0000 -48.9110
v  -4.8677 8.8892 -48.9110
v  4.8677 8.8892 -48.9110
v  -3.4222 20.3208 -58.0533
v  3.2950 20.3208 -58.0533
v  2.4454 19.5450 -69.8639
v  -2.5726 19.5450 -69.8639
# 36 vertices

vn 0.0000 -1.0000 0.0000
vn -0.0000 1.0000 -0.0000
vn -0.0000 -0.0000 -1.0000
vn -1.0000 0.0000 0.0000
vn 0.0000 0.0000 1.0000
vn 1.0000 0.0000 -0.0000
vn 0.0000 -0.9823 0.1873
vn 0.0000 0.9823 0.1873
vn -0.9789 0.0000 0.2044
vn 0.9789 0.0000 0.2044
vn 0.0708 -0.9975 0.0000
vn 0.0708 0.9975 -0.0000
vn -0.0304 0.0000 0.9995
vn -0.0470 -0.9989 0.0000
vn -0.0470 0.9989 -0.0000
vn -0.0304 -0.0000 -0.9995
vn -0.0000 -0.9978 -0.0655
vn -0.9974 -0.0000 -0.0718
vn -0.0000 0.9978 -0.0655
vn 0.9974 -0.0000 -0.0718
vn -0.0000 -0.3096 -0.9509
vn 0.0000 0.6246 0.7810
vn -0.9950 0.0651 -0.0759
vn 0.9942 0.0756 -0.0765
# 24 vertex normals

vt 1.0000 0.0000 0.0000
vt 1.0000 1.0000 0.0000
vt 0.0000 1.0000 0.0000
vt 0.0000 0.0000 0.0000
# 4 texture coords

o Box001
g Box001
f 1/1/1 2/2/1 3/3/1 
f 3/3/1 4/4/1 1/1/1 
f 5/4/2 6/1/2 7/2/2 
f 7/2/2 8/3/2 5/4/2 
f 9/4/3 10/1/3 11/2/3 
f 11/2/3 12/3/3 9/4/3 
f 4/4/4 3/1/4 7/2/4 
f 7/2/4 6/3/4 4/4/4 
f 13/4/5 14/1/5 15/2/5 
f 15/2/5 16/3/5 13/4/5 
f 2/4/6 1/1/6 5/2/6 
f 5/2/6 8/3/6 2/4/6 
f 3/4/7 2/1/7 14/1/7 
f 14/1/7 13/4/7 3/4/7 
f 8/2/8 7/3/8 16/3/8 
f 16/3/8 15/2/8 8/2/8 
f 7/3/9 3/4/9 13/4/9 
f 13/4/9 16/3/9 7/3/9 
f 2/1/10 8/2/10 15/2/10 
f 15/2/10 14/1/10 2/1/10 
f 1/4/1 4/1/1 17/1/1 
f 17/1/1 18/4/1 1/4/1 
f 6/2/2 5/3/2 19/3/2 
f 19/3/2 20/2/2 6/2/2 
f 21/1/4 22/2/4 23/2/4 
f 23/2/4 24/1/4 21/1/4 
f 25/3/6 26/4/6 27/4/6 
f 27/4/6 28/3/6 25/3/6 
f 18/4/1 17/1/1 29/1/1 
f 29/1/1 30/4/1 18/4/1 
f 17/1/4 20/2/4 31/2/4 
f 31/2/4 29/1/4 17/1/4 
f 20/2/2 19/3/2 32/3/2 
f 32/3/2 31/2/2 20/2/2 
f 19/3/6 18/4/6 30/4/6 
f 30/4/6 32/3/6 19/3/6 
f 5/3/5 1/4/5 26/4/5 
f 26/4/5 25/3/5 5/3/5 
f 1/4/11 18/4/11 27/4/11 
f 27/4/11 26/4/11 1/4/11 
f 19/3/12 5/3/12 25/3/12 
f 25/3/12 28/3/12 19/3/12 
f 18/4/3 19/3/3 28/3/3 
f 28/3/3 27/4/3 18/4/3 
f 4/1/13 6/2/13 22/2/13 
f 22/2/13 21/1/13 4/1/13 
f 17/1/14 4/1/14 21/1/14 
f 21/1/14 24/1/14 17/1/14 
f 6/2/15 20/2/15 23/2/15 
f 23/2/15 22/2/15 6/2/15 
f 20/2/16 17/1/16 24/1/16 
f 24/1/16 23/2/16 20/2/16 
f 30/4/17 29/1/17 10/1/17 
f 10/1/17 9/4/17 30/4/17 
f 29/1/18 31/2/18 11/2/18 
f 11/2/18 10/1/18 29/1/18 
f 33/2/19 34/3/19 35/3/19 
f 35/3/19 36/2/19 33/2/19 
f 32/3/20 30/4/20 9/4/20 
f 9/4/20 12/3/20 32/3/20 
f 12/3/21 11/2/21 36/2/21 
f 36/2/21 35/3/21 12/3/21 
f 31/2/22 32/3/22 34/3/22 
f 34/3/22 33/2/22 31/2/22 
f 11/2/23 31/2/23 33/2/23 
f 33/2/23 36/2/23 11/2/23 
f 32/3/24 12/3/24 35/3/24 
f 35/3/24 34/3/24 32/3/24 
# 68 faces

